<?xml version="1.0" standalone="no"?>
<!DOCTYPE svg PUBLIC "-//W3C//DTD SVG 20010904//EN"
 "http://www.w3.org/TR/2001/REC-SVG-20010904/DTD/svg10.dtd">
<svg version="1.0" xmlns="http://www.w3.org/2000/svg"
 width="1152.000000pt" height="1152.000000pt" viewBox="0 0 1152.000000 1152.000000"
 preserveAspectRatio="xMidYMid meet">
<metadata>
Created by potrace 1.14, written by Peter Selinger 2001-2017
</metadata>
<g transform="translate(0.000000,1152.000000) scale(0.100000,-0.100000)"
fill="#000000" stroke="none">
<path d="M0 5760 l0 -4480 5115 0 5116 0 8 23 c5 12 5 23 0 25 -4 2 -4 14 1
27 6 15 6 27 0 30 -7 4 -6 13 0 25 6 12 7 21 0 25 -6 4 -6 15 0 30 6 16 6 25
0 25 -6 0 -6 9 0 25 6 15 6 26 0 30 -7 4 -6 13 0 25 6 12 7 21 0 25 -6 4 -6
15 0 30 6 16 6 25 0 25 -6 0 -6 9 0 25 6 15 6 26 0 30 -7 4 -6 13 0 25 6 12 7
21 0 25 -6 4 -6 15 0 30 6 16 6 25 0 25 -6 0 -6 9 0 25 6 15 6 26 0 30 -7 4
-6 13 0 25 6 12 7 21 0 25 -6 4 -6 15 0 30 6 16 6 25 0 25 -6 0 -6 9 0 25 6
15 6 26 0 30 -7 4 -6 13 0 25 6 12 7 21 0 25 -6 4 -6 15 0 30 6 16 6 25 0 25
-6 0 -6 9 0 25 6 15 6 26 0 30 -7 4 -6 13 0 25 6 12 7 21 0 25 -6 4 -6 15 0
30 6 16 6 25 0 25 -6 0 -6 9 0 25 6 15 6 26 0 30 -7 4 -6 13 0 25 6 12 7 21 0
25 -6 4 -6 15 0 30 6 16 6 25 0 25 -6 0 -6 9 0 25 6 15 6 26 0 30 -7 4 -6 13
0 25 6 12 7 21 0 25 -6 4 -6 15 0 30 6 16 6 25 0 25 -6 0 -6 9 0 25 6 15 6 26
0 30 -7 4 -6 13 0 25 6 12 7 21 0 25 -6 4 -6 15 0 30 6 16 6 25 0 25 -6 0 -6
9 0 25 6 15 6 26 0 30 -7 4 -6 13 0 25 6 12 7 21 0 25 -6 4 -6 15 0 30 6 16 6
25 0 25 -6 0 -6 9 0 25 6 15 6 26 0 30 -7 4 -6 13 0 25 6 12 7 21 0 25 -6 4
-6 15 0 30 6 16 6 25 0 25 -6 0 -6 9 0 25 6 15 6 26 0 30 -7 4 -6 13 0 25 6
12 7 21 0 25 -6 4 -6 15 0 30 6 16 6 25 0 25 -6 0 -6 9 0 25 6 15 6 26 0 30
-7 4 -6 13 0 25 6 12 7 21 0 25 -6 4 -6 15 0 30 6 16 6 25 0 25 -6 0 -6 9 0
25 6 15 6 26 0 30 -7 4 -6 13 0 25 6 12 7 21 0 25 -6 4 -6 15 0 30 6 16 6 25
0 25 -6 0 -6 9 0 25 6 15 6 26 0 30 -7 4 -6 13 0 25 6 12 7 21 0 25 -6 4 -6
15 0 30 6 16 6 25 0 25 -6 0 -6 9 0 25 6 15 6 26 0 30 -7 4 -6 13 0 25 6 12 7
21 0 25 -6 4 -6 15 0 30 6 16 6 25 0 25 -6 0 -6 9 0 25 6 15 6 26 0 30 -7 4
-6 13 0 25 6 12 7 21 0 25 -6 4 -6 15 0 30 6 16 6 25 0 25 -6 0 -6 9 0 25 6
15 6 26 0 30 -7 4 -6 13 0 25 6 12 7 21 0 25 -6 4 -6 15 0 30 6 16 6 25 0 25
-6 0 -6 9 0 25 6 15 6 26 0 30 -7 4 -6 13 0 25 6 12 7 21 0 25 -6 4 -6 15 0
30 6 16 6 25 0 25 -6 0 -6 9 0 25 6 15 6 26 0 30 -7 4 -6 13 0 25 6 12 7 21 0
25 -6 4 -6 15 0 30 6 16 6 25 0 25 -6 0 -6 9 0 25 6 15 6 26 0 30 -7 4 -6 13
0 25 6 12 7 21 0 25 -6 4 -6 15 0 30 6 16 6 25 0 25 -6 0 -6 9 0 25 6 15 6 26
0 30 -7 4 -6 13 0 25 6 12 7 21 0 25 -6 4 -6 15 0 30 6 16 6 25 0 25 -6 0 -6
9 0 25 6 15 6 26 0 30 -7 4 -6 13 0 25 6 12 7 21 0 25 -6 4 -6 15 0 30 6 16 6
25 0 25 -6 0 -6 9 0 25 6 15 6 26 0 30 -7 4 -6 13 0 25 6 12 7 21 0 25 -6 4
-6 15 0 30 6 16 6 25 0 25 -6 0 -6 9 0 25 6 15 6 26 0 30 -7 4 -6 13 0 25 6
12 7 21 0 25 -6 4 -6 15 0 30 6 16 6 25 0 25 -6 0 -6 9 0 25 6 15 6 26 0 30
-7 4 -6 13 0 25 6 12 7 21 0 25 -6 4 -6 15 0 30 6 16 6 25 0 25 -6 0 -6 9 0
25 6 15 6 26 0 30 -7 4 -6 13 0 25 6 12 7 21 0 25 -6 4 -6 15 0 30 6 16 6 25
0 25 -6 0 -6 9 0 25 6 15 6 26 0 30 -7 4 -6 13 0 25 6 12 7 21 0 25 -6 4 -6
15 0 30 6 16 6 25 0 25 -6 0 -6 9 0 25 6 15 6 26 0 30 -7 4 -6 13 0 25 6 12 7
21 0 25 -6 4 -6 15 0 30 6 16 6 25 0 25 -6 0 -6 9 0 25 6 15 6 26 0 30 -7 4
-6 13 0 25 6 12 7 21 0 25 -6 4 -6 15 0 30 6 16 6 25 0 25 -6 0 -6 9 0 25 6
15 6 26 0 30 -7 4 -6 13 0 25 6 12 7 21 0 25 -6 4 -6 15 0 30 6 16 6 25 0 25
-6 0 -6 9 0 25 6 15 6 26 0 30 -7 4 -6 13 0 25 6 12 7 21 0 25 -6 4 -6 15 0
30 6 16 6 25 0 25 -6 0 -6 9 0 25 6 15 6 26 0 30 -7 4 -6 13 0 25 6 12 7 21 0
25 -6 4 -6 15 0 30 6 16 6 25 0 25 -6 0 -6 9 0 25 6 15 6 26 0 30 -7 4 -6 13
0 25 6 12 7 21 0 25 -6 4 -6 15 0 30 6 16 6 25 0 25 -6 0 -6 9 0 25 6 15 6 26
0 30 -7 4 -6 13 0 25 6 12 7 21 0 25 -6 4 -6 15 0 30 6 16 6 25 0 25 -6 0 -6
9 0 25 6 15 6 26 0 30 -7 4 -6 13 0 25 6 12 7 21 0 25 -6 4 -6 15 0 30 6 16 6
25 0 25 -6 0 -6 9 0 25 6 15 6 26 0 30 -7 4 -6 13 0 25 6 12 7 21 0 25 -6 4
-6 15 0 30 6 16 6 25 0 25 -6 0 -6 9 0 25 6 15 6 26 0 30 -7 4 -6 13 0 25 6
12 7 21 0 25 -6 4 -6 15 0 30 6 16 6 25 0 25 -6 0 -6 9 0 25 6 15 6 26 0 30
-7 4 -6 13 0 25 6 12 7 21 0 25 -6 4 -6 15 0 30 6 16 6 25 0 25 -6 0 -6 9 0
25 6 15 6 26 0 30 -7 4 -6 13 0 25 6 12 7 21 0 25 -6 4 -6 15 0 30 6 16 6 25
0 25 -6 0 -6 9 0 25 6 15 6 26 0 30 -7 4 -6 13 0 25 6 12 7 21 0 25 -6 4 -6
15 0 30 6 16 6 25 0 25 -6 0 -6 9 0 25 6 15 6 26 0 30 -7 4 -6 13 0 25 6 12 7
21 0 25 -6 4 -6 15 0 30 6 16 6 25 0 25 -6 0 -6 9 0 25 6 15 6 26 0 30 -7 4
-6 13 0 25 6 12 7 21 0 25 -6 4 -6 15 0 30 6 16 6 25 0 25 -6 0 -6 9 0 25 6
15 6 26 0 30 -7 4 -6 13 0 25 6 12 7 21 0 25 -6 4 -6 15 0 30 6 16 6 25 0 25
-6 0 -6 9 0 25 6 15 6 26 0 30 -7 4 -6 13 0 25 6 12 7 21 0 25 -6 4 -6 15 0
30 6 16 6 25 0 25 -6 0 -6 9 0 25 6 15 6 26 0 30 -7 4 -6 13 0 25 6 12 7 21 0
25 -6 4 -6 15 0 30 6 16 6 25 0 25 -6 0 -6 9 0 25 6 15 6 26 0 30 -7 4 -6 13
0 25 6 12 7 21 0 25 -6 4 -6 15 0 30 6 16 6 25 0 25 -6 0 -6 9 0 25 6 15 6 26
0 30 -7 4 -6 13 0 25 6 12 7 21 0 25 -6 4 -6 15 0 30 6 16 6 25 0 25 -6 0 -6
9 0 25 6 15 6 26 0 30 -7 4 -6 13 0 25 6 12 7 21 0 25 -6 4 -6 15 0 30 6 16 6
25 0 25 -6 0 -6 9 0 25 6 15 6 26 0 30 -7 4 -6 13 0 25 6 12 7 21 0 25 -6 4
-6 15 0 30 6 16 6 25 0 25 -6 0 -6 9 0 25 6 15 6 26 0 30 -7 4 -6 13 0 25 6
12 7 21 0 25 -6 4 -6 15 0 30 6 16 6 25 0 25 -6 0 -6 9 0 25 6 15 6 26 0 30
-7 4 -6 13 0 25 6 12 7 21 0 25 -6 4 -6 15 0 30 6 16 6 25 0 25 -6 0 -6 9 0
25 6 15 6 26 0 30 -7 4 -6 13 0 25 6 12 7 21 0 25 -6 4 -6 15 0 30 6 16 6 25
0 25 -6 0 -6 9 0 25 6 15 6 26 0 30 -7 4 -6 13 0 25 6 12 7 21 0 25 -6 4 -6
15 0 30 6 16 6 25 0 25 -6 0 -6 9 0 25 6 15 6 26 0 30 -7 4 -6 13 0 25 6 12 7
21 0 25 -6 4 -6 15 0 30 6 16 6 25 0 25 -6 0 -6 9 0 25 6 15 6 26 0 30 -7 4
-7 13 0 24 5 10 6 21 3 25 -3 3 -2310 6 -5125 6 l-5118 0 0 -4480z"/>
</g>
</svg>
